<svg xmlns="http://www.w3.org/2000/svg" viewBox="0 0 32 32" width="32" height="32">
  <rect width="32" height="32" rx="7" fill="#e6484f"/>
  <path d="M16 9.6v14.4" stroke="#fff" stroke-width="2" stroke-linecap="round"/>
  <path d="M16 9.6C13.9 8.2 11.4 7.6 8.4 7.9c-.8.1-1.4.8-1.4 1.6v11.8c0 .9.8 1.7 1.7 1.6 2.7-.2 5 .3 6.9 1.5M16 9.6c2.1-1.4 4.6-2 7.6-1.7.8.1 1.4.8 1.4 1.6v11.8c0 .9-.8 1.7-1.7 1.6-2.7-.2-5 .3-6.9 1.5" fill="none" stroke="#fff" stroke-width="2" stroke-linejoin="round" stroke-linecap="round"/>
</svg>
